<svg width="114" height="50" viewBox="0 0 114 50" fill="none" xmlns="http://www.w3.org/2000/svg">
<g clip-path="url(#clip0_46_226)">
<path d="M34.4806 16.7626H39.2403V29.7071L39.2432 29.8927C39.2432 30.7654 39.0647 33.3865 37.0873 35.4769C35.508 37.1419 33.2643 38 30.4146 38C27.4259 38 25.0709 37.1229 23.4272 35.3906C21.1527 33.0006 21.2537 29.9658 21.2786 29.6223L21.2684 29.7509V16.7626H26.0266V29.8576C26.0252 30.0024 26.0457 31.261 26.9151 32.1498C27.6205 32.8763 28.7973 33.2447 30.4161 33.2447C31.8899 33.2447 32.9555 32.8997 33.6126 32.2258C34.4542 31.3692 34.4864 30.0696 34.4864 29.8766L34.4806 16.7626ZM15.5983 23.9183C14.9572 21.9258 13.2477 20.6905 11.3318 20.6905C7.85858 20.6905 6.10661 23.639 6.10661 26.7893C6.10661 29.9395 7.6566 32.8836 11.0522 32.8836C13.9678 32.8836 15.1972 30.821 15.9554 28.9762L20.1121 31.1704C18.7538 34.1232 16.4398 37.348 10.9761 37.348C4.78349 37.3466 1 32.7974 1 26.7893C1 20.7812 4.78349 16.2217 11.3318 16.2217C16.2364 16.2217 18.6265 18.9393 19.8647 21.9638L15.5983 23.9183ZM54.3128 26.7147C53.6746 27.0363 52.8828 27.2775 52.0002 27.431L49.3394 27.985C47.5215 28.3447 46.0023 28.8578 46.0023 30.7669C46.0023 32.2755 47.4015 33.2637 49.1447 33.2637C51.4031 33.2637 54.3128 32.1571 54.3128 29.5843V26.7147ZM54.3128 36.7589V34.9389C52.4393 36.4402 50.2512 37.2355 47.7572 37.2355C43.9356 37.2355 40.9191 34.8103 40.9191 30.9262C40.9191 27.0422 44.0527 25.2456 47.0385 24.6506L49.0554 24.253C50.8044 23.8963 53.0687 23.5031 54.3113 23.066V22.4754C54.3113 20.4771 52.5959 19.9304 50.4898 19.9304C47.6708 19.9304 46.7517 20.7622 46.7517 22.9432L41.9056 22.7503C41.9056 18.0329 46.0872 16.2042 50.4898 16.2042C54.8924 16.2042 59.1501 17.074 59.1501 22.7956V36.7575H54.3098L54.3128 36.7589ZM61.5329 12.076H66.4302V16.6077H70.7889V20.9902H66.4302V30.381C66.4302 31.9817 66.7419 32.8617 68.63 32.8617C69.3077 32.8617 70.0732 32.7023 70.7889 32.6293V36.6273C69.6267 36.8642 68.4251 37.1097 66.9029 37.1097C62.8897 37.1097 61.5329 35.3117 61.5329 32.2273V12.076ZM73.0985 16.7041H77.9973V19.5094C79.237 17.1895 81.4778 16.2217 84.3245 16.2217V21.1919C80.9992 21.1919 77.9973 22.7532 77.9973 27.1562V36.9621H73.0985V16.7041ZM105.344 26.8346C105.344 32.6863 100.6 37.4182 94.7456 37.4182C88.8911 37.4182 84.1533 32.6863 84.1533 26.8346C84.1533 20.9829 88.8984 16.2554 94.7456 16.2554C100.593 16.2554 105.344 20.9946 105.344 26.8346ZM113 15.7949C113 17.8926 111.298 19.5883 109.211 19.5883C107.124 19.5883 105.408 17.8941 105.408 15.7949C105.408 13.6957 107.104 12 109.211 12C111.317 12 113 13.6972 113 15.7949Z" fill="white"/>
</g>
<defs>
<clipPath id="clip0_46_226">
<rect width="112" height="26" fill="white" transform="translate(1 12)"/>
</clipPath>
</defs>
</svg>
