<svg width="145" height="50" viewBox="0 0 145 50" fill="none" xmlns="http://www.w3.org/2000/svg">
<path fill-rule="evenodd" clip-rule="evenodd" d="M6.01433 13.9899C6.93483 11.8201 8.33981 11 10.7518 11H22.0505L21.7148 11.9205L21.7112 11.9299C21.4105 12.7154 20.1463 16.0178 16.4963 16.0178H9.49563C6.60262 16.0178 5.1042 16.2116 5.1042 16.2116L6.01779 13.9899H6.01433ZM1 36.6807C2.68874 36.9714 4.38095 37.0683 6.59916 37.0683C16.5448 37.0683 21.9017 33.542 21.9017 27.5068C21.9017 21.8557 16.9739 18.627 8.62704 18.627C6.88984 18.627 5.53677 18.6686 4.23215 18.7689L2.20773 23.451C3.79958 23.3507 4.96232 23.3507 7.08363 23.3507C13.7971 23.3507 16.4029 25.0982 16.4029 27.6521C16.4029 30.206 13.3611 32.1889 6.74796 32.1889C5.39835 32.1889 4.23561 32.1439 3.02788 31.9986L1.00346 36.6807H1ZM4.03836 27.7975C4.03836 29.5381 5.39489 30.8878 7.12516 30.8878C8.85543 30.8878 10.2639 29.5381 10.2639 27.7975C10.2639 26.0568 8.86235 24.6588 7.12516 24.6588C5.38797 24.6588 4.03836 26.0603 4.03836 27.7975ZM35.4739 18.7239L35.4653 18.7135H40.8689V15.4848H29.4837C27.7016 15.4848 26.255 16.9314 26.255 18.7135H31.7209L31.7054 18.7239V34.0195H35.4739V18.7239ZM97.916 15.9105C97.916 16.9383 97.082 17.7688 96.0577 17.7688C95.0333 17.7688 94.1994 16.9348 94.1994 15.9105C94.1994 14.8862 95.0299 14.0522 96.0577 14.0522C97.0854 14.0522 97.916 14.8862 97.916 15.9105ZM91.5693 29.3997H89.5864V29.3962C89.0085 29.3962 88.4306 29.6039 88.0292 30.0226C87.6208 30.4483 86.8422 30.9362 85.4096 30.9362C84.4891 30.9362 83.8004 30.6524 83.3402 30.0849C82.7034 29.4136 82.385 28.2612 82.385 26.6347C82.385 25.0083 82.7034 23.8386 83.3402 23.1292C83.835 22.6343 84.4717 22.3852 85.2504 22.3852C86.1017 22.3852 86.7557 22.6343 87.216 23.1292C87.3924 23.3057 87.5689 23.5722 87.7454 23.9251H91.462C91.1783 22.9008 90.718 21.9976 90.0813 21.219C88.9151 19.942 87.2679 19.3053 85.1431 19.3053C83.1256 19.3053 81.5476 19.9628 80.416 21.2709C79.3155 22.5478 78.7688 24.2089 78.7688 26.5828C78.7688 28.9568 79.3328 30.7805 80.4679 32.0539C81.5995 33.3655 83.1775 34.0195 85.195 34.0195C86.8595 34.0195 88.2403 33.6112 89.3373 32.798C90.4343 32.0193 91.1783 30.8877 91.5693 29.3997ZM126.69 29.3997H128.673C128.282 30.8877 127.538 32.0193 126.441 32.798C125.344 33.6112 123.963 34.0195 122.299 34.0195C120.281 34.0195 118.703 33.3655 117.572 32.0539C116.437 30.7805 115.873 28.9568 115.873 26.5828C115.873 24.2089 116.419 22.5478 117.52 21.2709C118.652 19.9628 120.23 19.3053 122.247 19.3053C124.372 19.3053 126.019 19.942 127.185 21.219C127.822 21.9976 128.282 22.9008 128.566 23.9251H124.849C124.673 23.5722 124.496 23.3057 124.32 23.1292C123.86 22.6343 123.206 22.3852 122.354 22.3852C121.576 22.3852 120.939 22.6343 120.444 23.1292C119.807 23.8386 119.489 25.0083 119.489 26.6347C119.489 28.2612 119.807 29.4136 120.444 30.0849C120.904 30.6524 121.593 30.9362 122.514 30.9362C123.946 30.9362 124.725 30.4483 125.133 30.0226C125.535 29.6039 126.112 29.3962 126.69 29.3962V29.3997ZM53.1642 29.3997H51.1917V29.3962C50.6103 29.3962 50.0324 29.6039 49.6276 30.0226C49.2158 30.4483 48.4337 30.9362 47.001 30.9362C46.0805 30.9362 45.3919 30.6524 44.9316 30.0849C44.4367 29.552 44.1703 28.7387 44.1357 27.6418H53.3234C53.358 27.5725 53.3753 27.448 53.3753 27.2715V26.6866C53.3753 24.3508 52.8078 22.5305 51.6762 21.219C50.51 19.942 48.8628 19.3053 46.738 19.3053C44.7205 19.3053 43.1425 19.9628 42.0109 21.2709C40.9105 22.5478 40.3637 24.2089 40.3637 26.5828C40.3637 28.9568 40.9278 30.7805 42.0628 32.0539C43.1944 33.3655 44.7724 34.0195 46.7899 34.0195C48.4544 34.0195 49.8352 33.6112 50.9322 32.798C52.0292 32.0193 52.7732 30.8877 53.1642 29.3997ZM49.548 25.254H44.1322C44.1668 24.3335 44.4333 23.6275 44.9281 23.1292C45.423 22.6343 46.0597 22.3852 46.8384 22.3852C47.6897 22.3852 48.3437 22.6343 48.8039 23.1292C49.2296 23.5895 49.4753 24.2989 49.548 25.254ZM56.5625 15.4848H58.4727C58.9675 15.4848 59.3932 15.6544 59.7461 15.9901C60.0991 16.3258 60.2756 16.741 60.2756 17.2393V34.0195H56.559V15.4848H56.5625ZM94.1959 19.3088H97.9125V34.0195H94.1959V19.3088ZM113.108 34.0126H111.249C110.72 34.0126 110.284 33.8465 109.948 33.5074C109.613 33.1717 109.443 32.7391 109.443 32.2062V24.7211C109.443 23.8732 109.187 23.2503 108.671 22.8627C108.159 22.4752 107.581 22.2779 106.945 22.2779C106.308 22.2779 105.74 22.4717 105.245 22.8627C104.747 23.2538 104.501 23.8732 104.501 24.7211V34.0161H100.785V25.4651C100.785 23.0565 101.411 21.4474 102.671 20.6342C103.927 19.8209 105.318 19.378 106.841 19.3053C108.398 19.3053 109.831 19.7137 111.142 20.5269C112.45 21.3436 113.108 22.9873 113.108 25.4651V34.0092V34.0126ZM131.469 29.9049C131.788 30.9846 132.317 31.8428 133.061 32.4796C133.771 33.1163 134.715 33.5662 135.902 33.8326C137.089 34.0991 138.269 34.0714 139.436 33.753C140.744 33.4693 141.823 32.7426 142.675 31.5764C143.062 31.0123 143.381 30.3202 143.63 29.507C143.875 28.6937 144 27.7213 144 26.5863C144 25.0256 143.699 23.6656 143.097 22.4959C142.46 21.1878 141.467 20.2639 140.121 19.7344C138.955 19.3087 137.643 19.1945 136.193 19.3883C134.743 19.5856 133.556 20.2119 132.636 21.2743C132.072 21.9145 131.656 22.7105 131.39 23.6656C131.123 24.6207 130.992 25.5792 130.992 26.5344C130.992 27.7006 131.151 28.8252 131.469 29.9049ZM134.601 26.7697C134.532 25.1605 134.868 23.9459 135.612 23.1326H135.615C135.644 23.1036 135.672 23.0748 135.699 23.0464C135.902 22.8345 136.086 22.642 136.736 22.4924C137.3 22.3609 137.844 22.3713 138.373 22.5478C138.906 22.7243 139.373 23.1326 139.782 23.7694C140.186 24.4061 140.391 25.3647 140.391 26.6382C140.353 28.0535 140.124 29.0813 139.699 29.7181C139.273 30.3548 138.788 30.7528 138.238 30.9119C137.688 31.0711 137.152 31.0504 136.619 30.8566C136.089 30.6628 135.715 30.424 135.504 30.1402C134.975 29.5035 134.674 28.3823 134.601 26.7697ZM75.8446 29.3997H73.8721V29.3962C73.2907 29.3962 72.7128 29.6039 72.3079 30.0226C71.8961 30.4483 71.114 30.9362 69.6814 30.9362C68.7608 30.9362 68.0722 30.6524 67.612 30.0849C67.1171 29.552 66.8506 28.7387 66.816 27.6418H76.0038C76.0384 27.5725 76.0557 27.448 76.0557 27.2715V26.6866C76.0557 24.3508 75.4881 22.5305 74.3565 21.219C73.1903 19.942 71.5431 19.3053 69.4184 19.3053C67.4009 19.3053 65.8229 19.9628 64.6913 21.2709C63.5908 22.5478 63.044 24.2089 63.044 26.5828C63.044 28.9568 63.6081 30.7805 64.7432 32.0539C65.8748 33.3655 67.4528 34.0195 69.4703 34.0195C71.1348 34.0195 72.5155 33.6112 73.6125 32.798C74.7095 32.0193 75.4535 30.8877 75.8446 29.3997ZM72.2318 25.254H66.816C66.8506 24.3335 67.1171 23.6275 67.612 23.1292C68.1068 22.6343 68.7435 22.3852 69.5222 22.3852C70.3735 22.3852 71.0275 22.6343 71.4878 23.1292C71.9134 23.5895 72.1591 24.2989 72.2318 25.254Z" fill="white"/>
</svg>
