<svg width="150" height="50" viewBox="0 0 150 50" fill="none" xmlns="http://www.w3.org/2000/svg">
<path d="M124.406 15.455C124.852 14.3952 125.532 14 126.708 14H132.867L132.702 14.4461C132.558 14.8203 131.951 16.4429 130.163 16.4429H126.098C125.384 16.4334 124.67 16.4644 123.96 16.5357L124.406 15.455Z" fill="white"/>
<path d="M144.626 28.436C144.622 28.7887 144.688 29.1386 144.821 29.4652C144.954 29.7918 145.152 30.0884 145.402 30.3374C145.651 30.5864 145.949 30.7827 146.276 30.9148C146.603 31.0469 146.953 31.1121 147.306 31.1064C147.658 31.1092 148.008 31.0422 148.334 30.9092C148.661 30.7763 148.958 30.5801 149.209 30.3319C149.459 30.0837 149.658 29.7884 149.794 29.463C149.929 29.1376 150 28.7886 150 28.436C150 28.0806 149.93 27.7288 149.793 27.4007C149.657 27.0726 149.457 26.7748 149.204 26.5244C148.952 26.2739 148.653 26.0758 148.324 25.9415C147.995 25.8072 147.643 25.7392 147.288 25.7416C146.935 25.7416 146.586 25.8114 146.261 25.9472C145.935 26.0829 145.64 26.2818 145.392 26.5324C145.144 26.7829 144.948 27.0802 144.815 27.4069C144.683 27.7337 144.617 28.0834 144.62 28.436" fill="white"/>
<path d="M81.9306 25.1728C81.8583 25.6122 81.8213 26.0567 81.8198 26.502C81.8198 28.1516 82.5084 29.0856 83.7718 29.0856C84.9034 29.0856 85.6818 28.4869 86.4662 26.99H88.2624C87.4571 29.5407 85.8375 30.8609 83.5382 30.8609C81.0325 30.8609 79.5236 29.1365 79.5236 26.2595C79.5236 22.0263 82.0503 18.7541 85.3165 18.7541C87.5349 18.7541 88.8881 20.3288 88.8881 22.9125C88.8946 23.6693 88.7938 24.4232 88.5887 25.1518L81.9306 25.1728ZM86.5919 23.5232C86.6662 23.1587 86.7033 22.7875 86.7027 22.4155C86.7027 21.218 86.1249 20.4995 85.1728 20.4995C83.9274 20.4995 82.9275 21.5563 82.3108 23.5741L86.5919 23.5232Z" fill="white"/>
<path d="M98.7736 19.0086L97.9533 22.6999H96.4893C96.5269 22.4882 96.5499 22.2741 96.5582 22.0592C96.5582 21.0503 95.9115 20.4606 94.8487 20.4606C93.7859 20.4606 93.0525 21.0593 93.0525 21.9575C93.0512 22.1458 93.0926 22.3319 93.1734 22.502C93.2543 22.672 93.3726 22.8216 93.5195 22.9394C93.9394 23.2625 94.385 23.5509 94.8517 23.8016C95.4476 24.1556 96.0187 24.5497 96.5612 24.9812C96.8791 25.2488 97.1321 25.585 97.3012 25.9646C97.4702 26.3443 97.5509 26.7573 97.5371 27.1726C97.5371 29.2892 95.8486 30.8639 93.5853 30.8639C92.2082 30.8639 91.2562 30.3221 90.7892 29.3132L90.4898 30.6155H89.0258L89.924 26.5559H91.3849C91.3466 26.7755 91.3246 26.9977 91.3191 27.2205C91.3191 28.418 92.1184 29.1635 93.3638 29.1635C94.4955 29.1635 95.2918 28.451 95.2918 27.4421C95.2986 27.2355 95.2556 27.0303 95.1665 26.8438C95.0774 26.6572 94.9448 26.4949 94.7799 26.3703C94.5164 26.1457 94.5164 26.1457 93.3159 25.4093C91.3191 24.2118 90.8311 23.5891 90.8311 22.2838C90.8311 20.266 92.4297 18.7661 94.5583 18.7661C95.7798 18.7661 96.5791 19.1852 97.0881 20.0953L97.3335 19.0116L98.7736 19.0086Z" fill="white"/>
<path d="M103.896 19.0086L103.564 20.4845C104.408 19.3529 105.405 18.7631 106.536 18.7631C108.467 18.7631 109.83 20.6342 109.83 23.2538C109.83 27.3403 107.342 30.8579 104.456 30.8579C103.061 30.8579 102.148 30.1694 101.746 28.8401L100.639 33.7858H102.414L102.037 35.4594H96.7348L97.109 33.7858H98.6059L101.558 20.5953H99.9381L100.294 18.9966L103.896 19.0086ZM103.597 22.2808C102.955 23.6474 102.593 25.1283 102.531 26.6367C102.531 28.1336 103.198 29.0976 104.261 29.0976C105.195 29.0976 105.995 28.4569 106.614 27.2025C107.221 25.897 107.553 24.4805 107.59 23.0412C107.59 21.4695 106.926 20.5115 105.86 20.5115C104.962 20.5115 104.195 21.1102 103.597 22.2808Z" fill="white"/>
<path d="M112.135 22.7239L112.847 20.0295C113.875 19.1972 115.163 18.7532 116.485 18.7751C118.506 18.7751 119.703 19.76 119.703 21.4305C119.688 22.1544 119.588 22.8739 119.404 23.5741L118.185 28.9629H119.715L119.338 30.6364H115.82L116.17 28.9509C115.35 30.2801 114.461 30.8699 113.242 30.8699C111.623 30.8699 110.467 29.6724 110.467 27.9659C110.467 26.2595 111.623 24.8405 113.596 24.074C114.617 23.6789 115.392 23.4753 117.392 23.113L117.479 22.67C117.568 22.3324 117.622 21.9861 117.637 21.6371C117.637 20.9006 117.125 20.5085 116.17 20.5085C114.841 20.5085 114.15 21.1222 113.665 22.7209L112.135 22.7239ZM117.083 24.4692C115.709 24.7686 115.087 24.9632 114.389 25.3075C113.368 25.8254 112.793 26.6128 112.793 27.5468C112.793 28.445 113.344 29.0228 114.191 29.0228C114.988 29.0228 115.742 28.5078 116.209 27.6456C116.431 27.2025 116.509 26.9062 116.853 25.4542L117.083 24.4692Z" fill="white"/>
<path d="M126.05 20.9036C126.981 19.4487 128.002 18.7631 129.223 18.7631C130.687 18.7631 131.663 19.8438 131.663 21.4575C131.663 22.0952 131.597 22.4664 131.22 24.2118L130.133 28.9629H131.777L131.397 30.6364H126.427L126.804 28.9629H127.936L129.133 23.6459C129.249 23.1863 129.316 22.7156 129.331 22.2419C129.331 21.4066 128.843 20.8917 128.044 20.8917C127.334 20.8917 126.67 21.3078 126.158 22.0712C125.858 22.5622 125.694 22.9693 125.424 24.2118L124.361 28.9629H125.649L125.292 30.6364H120.302L120.679 28.9629H122.158L124.047 20.6222H122.403L122.757 19.0086H126.463L126.05 20.9036Z" fill="white"/>
<path d="M134.816 22.7239L135.525 20.0295C136.554 19.1977 137.843 18.7537 139.166 18.7751C141.186 18.7751 142.384 19.76 142.384 21.4305C142.369 22.1544 142.269 22.8739 142.084 23.5741L140.866 28.9629H142.396L142.019 30.6364H138.498L138.854 28.9629C138.025 30.2801 137.148 30.8609 135.929 30.8609C134.31 30.8609 133.154 29.6634 133.154 27.957C133.154 26.2505 134.31 24.8315 136.286 24.0651C137.306 23.6699 138.082 23.4663 140.079 23.1041L140.168 22.661C140.255 22.3228 140.307 21.9768 140.324 21.6281C140.324 20.8917 139.812 20.4995 138.857 20.4995C137.528 20.4995 136.839 21.1132 136.351 22.7119L134.816 22.7239ZM139.764 24.4692C138.39 24.7686 137.767 24.9632 137.07 25.3075C136.049 25.8254 135.468 26.6128 135.468 27.5468C135.468 28.445 136.025 29.0228 136.869 29.0228C137.714 29.0228 138.423 28.5078 138.887 27.6456C139.109 27.2025 139.187 26.9062 139.531 25.4542L139.764 24.4692Z" fill="white"/>
<path d="M7.85865 26.3673L11.538 18.7421H14.0019L14.5138 30.8669H12.2745L11.9392 22.67H11.9062L7.85865 30.8669H6.75395L4.83195 22.4365H4.80201L2.33814 30.8669H0L3.55361 18.7421H6.09832L7.85865 26.3673Z" fill="white"/>
<path d="M16.0826 30.8669L17.6184 18.7421H24.4322L24.1777 20.7659H19.6811L19.3158 23.628H23.2676L23.0101 25.6578H19.0584L18.6602 28.8401H24.3214L24.0669 30.8669H16.0826Z" fill="white"/>
<path d="M30.5934 18.7421C34.9463 18.7421 36.2276 22.0143 36.2276 24.6429C36.2366 28.2534 33.9883 30.8609 31.0754 30.8609H25.459L26.9559 18.7421H30.5934ZM28.0187 28.8401H30.1952C32.7698 28.8401 33.8266 26.7056 33.8266 24.6099C33.8266 22.5143 32.5453 20.7689 30.1473 20.7689H29.0276L28.0187 28.8401Z" fill="white"/>
<path d="M37.3294 30.8669L38.8652 18.7421H41.1853L39.6495 30.8669H37.3294Z" fill="white"/>
<path d="M41.0746 30.8609L46.4155 18.5865H48.8793L50.7983 30.8609H48.4033L48.068 28.2084H44.691L43.6342 30.8609H41.0746ZM47.8914 26.487L47.3136 21.1252H47.2807L45.3616 26.493L47.8914 26.487Z" fill="white"/>
<path d="M51.6516 27.7534C52.5317 28.4659 53.828 28.9988 54.7381 28.9988C55.6483 28.9988 56.2949 28.4659 56.2949 27.6666C56.2949 25.6578 52.2803 25.4242 52.2803 22.2449C52.2803 20.1492 53.9119 18.5805 56.1183 18.5805C57.229 18.5936 58.3122 18.9274 59.2378 19.5415L58.9204 21.676C58.2139 21.1072 57.0493 20.6073 56.226 20.6073C55.4028 20.6073 54.6902 21.1402 54.6902 21.9425C54.6902 23.6819 58.7079 23.9154 58.7079 27.3103C58.7079 29.2653 57.4595 31.0256 55.0106 31.0256C53.6791 31.0641 52.3727 30.6574 51.2983 29.87L51.6516 27.7534Z" fill="white"/>
<path d="M60.0192 30.8669L61.555 18.7421H68.3718L68.1143 20.7659H63.6207L63.2494 23.628H67.2012L66.9467 25.6578H62.995L62.5938 28.8401H68.258L68.0035 30.8669H60.0192Z" fill="white"/>
<path d="M69.5843 20.7659L69.8417 18.7421H79.1703L78.9159 20.7659H75.3622L74.0839 30.8669H71.7637L73.0421 20.7659H69.5843Z" fill="white"/>
</svg>
